<?xml version="1.0" encoding="UTF-8"?>
<!DOCTYPE svg PUBLIC "-//W3C//DTD SVG 1.1//EN" "http://www.w3.org/Graphics/SVG/1.1/DTD/svg11.dtd">
<!-- Creator: CorelDRAW X7 -->
<svg xmlns="http://www.w3.org/2000/svg" xml:space="preserve" width="16.3628in" height="4.38419in" version="1.1" style="shape-rendering:geometricPrecision; text-rendering:geometricPrecision; image-rendering:optimizeQuality; fill-rule:evenodd; clip-rule:evenodd"
viewBox="0 0 24802 6645"
 xmlns:xlink="http://www.w3.org/1999/xlink">
 <defs>
  <style type="text/css">
   <![CDATA[
    .fil0 {fill:white}
    .fil1 {fill:white;fill-rule:nonzero}
   ]]>
  </style>
 </defs>
 <g id="Layer_x0020_1">
  <metadata id="CorelCorpID_0Corel-Layer"/>
  <g id="_447238704">
   <path class="fil0" d="M2018 721c128,-53 288,-102 448,-142 205,-51 411,-86 552,-93l40 -2 -5 41c-19,137 -43,283 -68,435 -122,735 -267,1611 92,2262l1 -3c107,-206 482,-924 1043,-1158 -181,-190 -274,-352 -290,-454 -9,-55 3,-97 33,-122 29,-25 74,-31 131,-16 122,33 325,174 585,463 80,-37 165,-67 250,-98 77,-27 154,-54 226,-86 -180,-202 -353,-388 -539,-563 -187,-176 -387,-342 -619,-501 -788,1717 -537,693 -380,-346l51 -336c-442,-16 -780,61 -1029,183 -289,143 -456,347 -522,536zm2798 358c109,84 232,198 347,317 146,152 279,313 355,431l22 35 -37 15c-131,53 -268,105 -411,159 -697,262 -1529,574 -1913,1210l3 0c232,-10 1042,-45 1525,324 73,-252 167,-413 247,-478 44,-35 86,-46 123,-33 36,13 64,49 79,106 33,123 12,368 -108,738 72,51 141,109 210,168 62,53 123,106 187,152 85,-256 159,-499 218,-748 59,-250 102,-506 124,-787 -165,16 -364,22 -578,28 -1331,38 253,-359 686,-528l319 -125c-207,-391 -443,-646 -674,-800 -268,-179 -528,-221 -724,-184zm1088 2602c-18,136 -55,299 -101,458 -58,203 -131,400 -195,525l-19 36 -32 -25c-109,-84 -224,-179 -343,-277 -576,-473 -1262,-1037 -2005,-1051l2 2c124,196 560,880 482,1483 255,-62 441,-61 537,-25 52,20 83,51 90,90 7,38 -10,80 -52,122 -90,89 -313,194 -693,275 -8,87 -25,176 -41,265 -15,80 -30,161 -38,239 264,-55 512,-112 757,-185 246,-74 489,-165 743,-286 -96,-135 -200,-305 -312,-487 -699,-1134 437,40 800,330l267 213c236,-374 338,-706 356,-982 21,-322 -72,-568 -203,-720zm-1709 2243c-127,53 -287,103 -448,142 -204,51 -410,86 -551,93l-41 2 6 -41c18,-137 42,-283 68,-435 121,-735 267,-1611 -92,-2261l-1 2c-107,206 -482,925 -1044,1159 182,189 274,351 291,453 8,55 -3,97 -33,122 -30,25 -74,32 -131,16 -123,-33 -325,-173 -585,-462 -80,36 -166,67 -251,97 -77,27 -153,55 -225,87 180,201 353,387 538,562 187,176 387,342 620,501 69,-151 163,-326 265,-514 634,-1174 183,405 114,863 -17,108 -34,219 -51,333 442,17 781,-60 1029,-183 289,-143 456,-347 522,-536zm-2797 -358c-110,-84 -232,-198 -347,-317 -146,-152 -280,-313 -356,-431l-22 -34 38 -16c130,-53 268,-105 410,-158 697,-262 1528,-575 1913,-1209 -230,11 -1040,47 -1527,-326 -74,252 -168,413 -248,478 -43,35 -85,46 -122,33 -37,-13 -64,-48 -80,-106 -32,-122 -12,-368 109,-738 -72,-50 -141,-109 -210,-168 -62,-53 -124,-106 -188,-152 -84,256 -159,499 -218,748 -59,250 -102,506 -123,787 165,-16 363,-21 577,-28 1331,-38 -253,359 -686,529l-318 124c207,392 442,646 673,800 268,179 528,221 725,184zm-1089 -2602c18,-136 56,-299 101,-458 59,-203 132,-399 196,-524l19 -37 32 25c109,85 223,179 343,277 575,473 1262,1037 2004,1051l-1 -2c-125,-196 -560,-880 -482,-1483 -255,63 -441,62 -538,25 -52,-20 -82,-51 -89,-90 -7,-38 10,-79 52,-121 89,-90 312,-195 693,-276 8,-87 24,-176 41,-265 14,-80 29,-160 37,-239 -264,55 -511,112 -756,185 -247,74 -490,165 -744,287 96,135 201,304 313,486 699,1134 -437,-40 -801,-330l-266 -213c-236,375 -339,706 -357,983 -20,321 73,568 203,719z"/>
   <path class="fil1" d="M8986 3652l-89 -73 0 0c-12,-10 -23,-19 -33,-25 -1,-1 -1,-1 0,-1l0 0c-1,0 -2,0 -5,0 -10,-1 -24,-1 -43,-1l-835 0 0 791 944 0c24,0 42,0 53,-1 6,0 8,0 9,0l0 0c-1,0 -1,0 -1,0 6,-3 13,-9 22,-16l6 -4c0,-9 1,-21 1,-36l0 -572c0,-18 -1,-30 -1,-39 -7,-6 -16,-14 -26,-21l-2 -2zm-122 -99c2,0 5,1 2,0 0,0 -1,0 -2,0l0 0zm123 789l0 0 0 0c0,0 0,0 0,0l0 0zm28 -673c0,1 0,1 0,0l0 0 0 0zm-1034 -1367l0 751 767 0c24,0 42,0 53,-1 9,0 13,0 13,0l0 -1c1,0 9,-6 24,-18l0 0 104 -85 0 1c18,-14 23,-13 24,-17l0 0c1,-3 -1,2 -1,-2 1,-9 1,-24 1,-47l0 -524c0,-15 0,-26 0,-35l-6 -5 0 0c-10,-7 -17,-13 -22,-16 0,0 0,0 0,0l0 0c-1,0 -3,0 -9,0 -10,-1 -28,-1 -52,-1l-896 0zm957 1c1,0 2,0 1,0l-1 0 0 0zm368 966l167 135 4 3c16,15 30,30 42,45 14,17 25,36 33,56 6,18 11,40 14,65l0 0c2,22 3,46 3,72l0 726c0,56 -11,108 -35,157 -23,48 -56,90 -101,127l-4 3c-10,8 -22,17 -36,29 -14,12 -32,27 -54,47l-2 2c-41,34 -83,60 -125,77 -45,19 -91,29 -138,29l-1540 0 -108 0 0 -108 0 -2822 0 -108 1600 0c90,0 177,35 262,106l97 80c44,37 78,80 101,127 23,49 35,102 35,157l0 690c0,43 -9,84 -27,122l0 0c-17,38 -43,71 -78,98l-2 3 -108 82zm2475 1182l0 283 0 108 -108 0 -1685 0 -108 0 0 -108 0 -2822 0 -108 108 0 339 0 108 0 0 108 0 2431 1238 0 108 0 0 108zm431 -2647l235 0 108 0 0 2930 0 108 -108 0 -339 0 -108 0 0 -108 0 -2712 212 -218zm1249 2539l1857 0 108 0 0 108 0 283 0 108 -108 0 -2450 0 -108 0 0 -108 0 -299 19 -60 1383 -2073 -1286 0 -108 0 0 -108 0 -282 0 -108 108 0 1887 0 108 0 0 414 -19 60 -1391 2065zm2266 0l1309 0 108 0 -180 499 -1830 0 -108 0 0 -108 0 -299 18 -60 1384 -2073 -2158 0 -108 0 0 -108 0 -282 0 -108 108 0 2758 0 108 0 0 108 0 306 -18 60 -1391 2065zm1440 356l968 -2822 25 -73 77 0 476 0 76 0 25 72 988 2822 50 144 -152 0 -338 0 -76 0 -25 -72 -184 -513 -1190 0 -177 512 -25 73 -77 0 -338 0 -152 0 49 -143zm1308 -2201l-431 1281 872 0 -441 -1281zm1687 -694l1492 0c90,0 177,35 262,106l97 80c44,37 78,80 100,127 24,49 36,102 36,157l0 944c0,57 -12,111 -37,161 -23,49 -58,93 -103,131l-101 85 -1 1c-79,64 -163,97 -253,97l-28 0 308 478 -1 1c13,19 25,36 35,51 7,9 11,15 13,17l1 0c1,2 5,4 12,9 10,6 25,15 47,28l0 0 43 23 1 1c29,16 52,31 70,45 27,20 47,42 58,65 10,20 17,47 20,79 3,25 4,54 4,86l0 158 0 108 -108 0 -100 0c-27,0 -50,-1 -70,-3 -24,-2 -44,-5 -61,-11l0 0c-17,-5 -36,-14 -58,-26l0 -1c-18,-10 -39,-23 -62,-39l0 0 -76 -52c-37,-25 -70,-54 -99,-86 -29,-31 -55,-65 -77,-104l0 0 -504 -807 -413 0 0 1021 0 108 -108 0 -339 0 -108 0 0 -108 0 -2822 0 -108 108 0zm447 498l0 913 895 0c25,0 42,-1 53,-1 6,-1 8,-1 9,-1l0 0c0,0 -1,0 0,0 3,-2 11,-8 21,-16l6 -5c1,-8 1,-20 1,-35l0 -798c0,-15 0,-26 -1,-35l-5 -5 0 0c-10,-7 -17,-13 -22,-16 -1,0 0,0 0,0l0 0c-1,0 -3,0 -9,0 -11,-1 -28,-1 -53,-1l-895 0zm957 911l0 0c1,0 0,0 0,0l0 0zm0 -910c0,0 1,0 0,0l0 0 0 0zm851 2431l0 -2822 0 -108 108 0 1491 0c98,0 187,36 267,109l-1 0 384 319c90,76 136,157 136,244l0 1693c0,47 -14,92 -40,136 -22,37 -55,73 -96,108l-384 320 1 0c-39,35 -81,62 -124,80 -46,19 -94,29 -143,29l-1491 0 -108 0 0 -108zm1830 -686l0 -1451c0,-20 -19,-47 -57,-79l-194 -161 -4 -3c-20,-18 -41,-32 -61,-40 -19,-8 -39,-12 -60,-12l-900 0 0 2041 900 0c43,0 83,-17 121,-52l4 -3 194 -161c38,-32 57,-58 57,-79z"/>
  </g>
 </g>
</svg>
