<?xml version="1.0" encoding="UTF-8"?>
<!DOCTYPE svg PUBLIC "-//W3C//DTD SVG 1.1//EN" "http://www.w3.org/Graphics/SVG/1.1/DTD/svg11.dtd">
<!-- Creator: CorelDRAW X7 -->
<svg xmlns="http://www.w3.org/2000/svg" xml:space="preserve" width="1.81663in" height="1.81663in" version="1.1" style="shape-rendering:geometricPrecision; text-rendering:geometricPrecision; image-rendering:optimizeQuality; fill-rule:evenodd; clip-rule:evenodd"
viewBox="0 0 1817 1817"
 xmlns:xlink="http://www.w3.org/1999/xlink">
 <defs>
  <style type="text/css">
   <![CDATA[
    .fil0 {fill:url(#id0)}
    .fil1 {fill:url(#id1)}
   ]]>
  </style>
  <linearGradient id="id0" gradientUnits="userSpaceOnUse" x1="996.151" y1="222.767" x2="820.471" y2="1593.86">
   <stop offset="0" style="stop-opacity:1; stop-color:white"/>
   <stop offset="1" style="stop-opacity:1; stop-color:#E6E1EF"/>
  </linearGradient>
  <linearGradient id="id1" gradientUnits="userSpaceOnUse" x1="1081.03" y1="149.22" x2="735.597" y2="1667.41">
   <stop offset="0" style="stop-opacity:1; stop-color:#663399"/>
   <stop offset="0.6" style="stop-opacity:1; stop-color:#4D1AB2"/>
   <stop offset="0.141176" style="stop-opacity:1; stop-color:#7A51B5"/>
   <stop offset="1" style="stop-opacity:1; stop-color:#3300CC"/>
  </linearGradient>
 </defs>
 <g id="Layer_x0020_1">
  <metadata id="CorelCorpID_0Corel-Layer"/>
  <g id="_444550096">
   <rect class="fil0" width="1817" height="1817" rx="534" ry="534"/>
   <path class="fil1" d="M663 323c29,-12 65,-23 101,-32 46,-12 93,-20 124,-21l9 -1 -1 9c-4,31 -9,64 -15,98 -28,166 -60,363 21,510l0 -1c24,-46 108,-208 235,-261 -41,-43 -62,-79 -66,-102 -2,-12 1,-22 8,-27 6,-6 16,-8 29,-4 28,7 73,39 132,104 18,-8 37,-15 56,-22 18,-6 35,-12 51,-19 -40,-46 -79,-88 -121,-127 -42,-40 -87,-77 -140,-113 -177,387 -120,156 -85,-78l11 -75c-99,-4 -175,13 -231,41 -65,32 -103,78 -118,121zm630 80c25,19 52,45 78,72 33,34 63,70 80,97l5 7 -8 4c-30,12 -61,23 -93,36 -157,59 -344,129 -430,272l0 0c52,-2 235,-10 344,73 16,-57 37,-93 55,-108 10,-7 20,-10 28,-7 8,3 14,11 18,24 7,27 2,83 -25,166 17,11 32,25 48,38 14,12 27,24 42,34 19,-58 36,-112 49,-168 13,-57 23,-114 28,-177 -37,3 -82,4 -130,6 -300,8 57,-81 154,-119l72 -28c-47,-88 -100,-146 -152,-180 -60,-41 -119,-50 -163,-42zm245 586c-4,31 -12,67 -23,103 -13,46 -29,90 -44,118l-4 8 -7 -5c-25,-19 -50,-40 -77,-62 -130,-107 -284,-234 -452,-237l1 0c28,44 126,198 108,334 58,-14 100,-14 121,-5 12,4 19,11 20,20 2,8 -2,18 -11,27 -20,20 -71,44 -156,62 -2,20 -6,40 -10,60 -3,18 -6,36 -8,54 59,-13 115,-25 170,-42 56,-17 111,-37 168,-64 -22,-31 -45,-69 -71,-110 -157,-255 99,9 181,74l60 48c53,-84 76,-159 80,-221 5,-72 -16,-128 -46,-162zm-385 505c-28,12 -64,23 -100,32 -47,11 -93,19 -125,21l-9 0 1 -9c5,-31 10,-64 16,-98 27,-165 60,-363 -21,-509l0 1c-24,46 -109,208 -235,260 41,43 62,80 65,103 2,12 0,21 -7,27 -7,6 -17,7 -30,4 -27,-8 -73,-39 -131,-105 -18,9 -38,16 -57,22 -17,7 -34,13 -51,20 41,45 80,87 122,127 42,39 87,77 139,112 16,-34 37,-73 60,-115 143,-265 41,91 26,194 -4,24 -8,49 -12,75 100,4 176,-14 232,-41 65,-32 103,-78 117,-121zm-629 -81c-25,-18 -53,-44 -79,-71 -32,-34 -63,-70 -80,-97l-5 -8 9 -3c29,-12 60,-24 92,-36 157,-59 344,-129 431,-272 -52,3 -234,11 -344,-73 -17,56 -38,93 -56,107 -9,8 -19,11 -27,8 -8,-3 -15,-11 -18,-24 -7,-28 -3,-83 24,-166 -16,-12 -31,-25 -47,-38 -14,-12 -28,-24 -42,-34 -19,57 -36,112 -49,168 -14,56 -23,114 -28,177 37,-3 82,-5 130,-6 300,-9 -57,81 -154,119l-72 28c46,88 99,145 151,180 61,40 119,50 164,41zm-246 -585c5,-31 13,-68 23,-104 13,-45 30,-89 44,-118l4 -8 8 6c24,19 50,40 77,62 129,107 284,234 451,237l0 -1c-28,-44 -126,-198 -109,-334 -57,14 -99,14 -121,6 -11,-4 -18,-11 -20,-20 -1,-9 2,-18 12,-28 20,-20 70,-43 156,-62 2,-19 5,-39 9,-59 3,-18 7,-36 9,-54 -60,12 -116,25 -171,42 -55,16 -110,37 -167,64 22,31 45,69 70,110 158,255 -98,-9 -180,-75l-60 -48c-53,85 -76,159 -80,222 -5,72 16,127 45,162z"/>
  </g>
 </g>
</svg>
