<svg width="105" height="117" viewBox="0 0 105 117" fill="none" xmlns="http://www.w3.org/2000/svg">
<path d="M96.3124 105L101.255 110.1V105H105V117H101.405L96.4622 111.6V117H92.8673V105H96.3124ZM29.8074 105V117H26.3623V114.45H21.4194V117H17.9743V105H29.8074ZM86.7261 104.85V108.3H78.1883V109.2H86.7261V112.65H78.1883V113.55H86.7261V117H74.893V105H75.9415V104.85H86.7261ZM3.44508 105V109.05H8.38802V105H12.1327V117H8.5378V112.8H3.59486V117H0V105H3.44508ZM49.4294 104.85V108.3H39.6933V113.55H49.4294V117H35.9486V105H37.7461V104.85H49.4294ZM59.1655 105V109.05H65.0071V105H69.0514V109.05L65.4565 112.65H69.0514V117H65.1569V112.8H59.3153V117H55.4208V105H59.1655ZM26.5121 108.45H21.5692V110.85H26.5121V108.45ZM5.99144 0L5.991 46.499H11.982L11.9829 0H18.1241V46.35H98.858V40.5H25.4636V0H31.4551V34.2L98.858 34.199V27H35.9486V0H42.0899V21H61.412L61.4123 0H67.4037L67.403 21H74.893V0H80.8845L80.884 21H86.875L86.8759 0H92.8673L92.867 21H98.858L98.8588 0H104.85V99H98.8588L98.858 52.5H92.867L92.8673 99H86.7261V52.65L5.991 52.649V58.499L80.8845 58.5V99H74.893V64.8L5.991 64.799V71.999L68.9016 72V99H62.7603V78L43.437 77.999L43.438 99H37.4465L37.446 77.999H29.957L29.9572 99H23.9658L23.965 77.999H17.974L17.9743 99H11.9829L11.982 77.999H5.991L5.99144 99H0V0H5.99144Z" fill="white"/>
</svg>
