<?xml version="1.0" encoding="UTF-8"?>
<!DOCTYPE svg PUBLIC "-//W3C//DTD SVG 1.1//EN" "http://www.w3.org/Graphics/SVG/1.1/DTD/svg11.dtd">
<!-- Creator: CorelDRAW X7 -->
<svg xmlns="http://www.w3.org/2000/svg" xml:space="preserve" width="13.3295in" height="3.57146in" version="1.1" style="shape-rendering:geometricPrecision; text-rendering:geometricPrecision; image-rendering:optimizeQuality; fill-rule:evenodd; clip-rule:evenodd"
viewBox="0 0 9252 2479"
 xmlns:xlink="http://www.w3.org/1999/xlink">
 <defs>
  <style type="text/css">
   <![CDATA[
    .fil1 {fill:#4D4D4D;fill-rule:nonzero}
    .fil0 {fill:url(#id0)}
   ]]>
  </style>
  <linearGradient id="id0" gradientUnits="userSpaceOnUse" x1="1445.05" y1="-18.2071" x2="872.746" y2="2497.05">
   <stop offset="0" style="stop-opacity:1; stop-color:#663399"/>
   <stop offset="0.6" style="stop-opacity:1; stop-color:#4D1AB2"/>
   <stop offset="0.141176" style="stop-opacity:1; stop-color:#7A51B5"/>
   <stop offset="1" style="stop-opacity:1; stop-color:#3300CC"/>
  </linearGradient>
 </defs>
 <g id="Layer_x0020_1">
  <metadata id="CorelCorpID_0Corel-Layer"/>
  <g id="_442050608">
   <path class="fil0" d="M753 269c47,-20 107,-38 167,-53 76,-19 153,-32 206,-35l15 0 -2 15c-7,51 -16,105 -26,162 -45,274 -99,601 35,844l0 -1c40,-77 180,-345 389,-432 -67,-71 -102,-131 -108,-170 -3,-20 1,-36 12,-45 11,-9 28,-12 49,-6 46,12 121,65 218,173 30,-14 62,-25 94,-37 28,-10 57,-20 84,-32 -67,-75 -132,-145 -201,-210 -70,-66 -144,-127 -231,-187 -294,641 -200,259 -142,-129l19 -125c-165,-6 -291,22 -383,68 -108,53 -170,129 -195,200zm1043 134c41,31 87,73 130,118 54,56 104,116 133,161l8 12 -14 6c-49,20 -100,39 -154,59 -260,98 -570,215 -713,452l1 0c86,-4 389,-17 569,121 27,-94 62,-154 92,-179 16,-13 32,-17 46,-12 13,5 24,18 29,40 13,45 5,137 -40,275 27,19 52,41 78,63 23,19 46,39 70,56 32,-95 59,-186 81,-279 23,-93 39,-188 47,-293 -62,6 -136,8 -216,10 -496,14 95,-134 256,-197l119 -46c-77,-146 -165,-241 -251,-299 -100,-67 -197,-82 -271,-68zm406 970c-6,51 -20,112 -37,171 -22,76 -49,149 -73,196l-7 13 -12 -9c-41,-32 -84,-67 -128,-103 -215,-177 -471,-387 -748,-393l1 1c46,73 209,329 179,554 96,-24 165,-23 201,-10 19,8 31,19 33,34 3,14 -3,29 -19,45 -33,33 -117,73 -259,103 -3,32 -9,66 -15,99 -5,30 -11,60 -14,89 99,-21 191,-42 282,-69 92,-28 183,-62 278,-107 -36,-50 -75,-113 -117,-181 -261,-424 163,14 299,123l99 79c88,-140 126,-263 133,-366 8,-120 -27,-212 -76,-269zm-637 837c-48,20 -107,38 -167,53 -76,19 -153,32 -206,34l-15 1 2 -15c7,-51 16,-106 25,-162 46,-274 100,-601 -34,-844l0 1c-40,77 -180,345 -390,432 68,71 103,131 109,169 3,21 -1,36 -12,46 -11,9 -28,12 -49,6 -46,-12 -122,-65 -219,-173 -29,14 -61,25 -93,37 -29,10 -57,20 -84,32 67,75 132,145 201,210 70,66 144,127 231,187 26,-57 61,-122 99,-192 236,-438 68,151 42,322 -6,40 -12,82 -19,124 165,6 292,-22 384,-68 108,-53 170,-130 195,-200zm-1044 -134c-40,-31 -86,-73 -129,-118 -55,-57 -104,-117 -133,-161l-8 -13 14 -5c49,-20 100,-40 153,-60 260,-97 570,-214 714,-451 -86,5 -388,18 -570,-121 -27,94 -62,154 -92,178 -16,14 -32,18 -46,13 -14,-5 -24,-18 -30,-40 -12,-46 -4,-137 41,-275 -27,-19 -53,-41 -78,-63 -23,-19 -47,-39 -70,-57 -32,96 -60,187 -82,279 -22,94 -38,189 -46,294 62,-6 136,-8 216,-10 496,-14 -95,134 -256,197l-119 46c77,146 165,241 251,299 100,66 197,82 270,68zm-406 -970c7,-51 21,-112 38,-171 22,-76 49,-149 73,-196l7 -13 12 9c41,31 83,67 128,103 215,177 471,387 748,392l-1 0c-46,-74 -209,-329 -180,-554 -95,24 -164,23 -200,10 -20,-8 -31,-19 -34,-34 -2,-14 4,-30 20,-45 33,-34 116,-73 258,-103 3,-33 9,-66 16,-99 5,-30 11,-60 14,-89 -99,20 -191,42 -283,69 -92,28 -182,61 -277,107 36,50 75,113 117,181 260,423 -163,-15 -299,-123l-99 -79c-88,139 -127,263 -133,366 -8,120 27,212 75,269z"/>
   <path class="fil1" d="M3352 1362l-33 -27 0 0c-5,-4 -9,-7 -13,-9 0,-1 0,-1 1,-1l0 0c-1,0 -1,0 -2,0 -4,0 -9,0 -16,0l-312 0 0 295 352 0c9,0 16,0 20,0 2,0 3,0 3,0l0 0c0,0 0,0 0,0 2,-2 5,-4 8,-6l2 -2c1,-3 1,-8 1,-13l0 -214c0,-6 0,-11 -1,-14 -2,-3 -5,-5 -9,-8l-1 -1zm-45 -37c0,0 1,1 0,0 0,0 0,0 0,0l0 0zm45 295l0 0 0 0c0,0 0,0 0,0l0 0zm11 -251c0,0 0,0 0,0l0 0 0 0zm-386 -510l0 280 286 0c9,0 16,0 20,0 3,-1 5,-1 5,-1l0 0c0,0 3,-2 9,-6l0 -1 39 -31 0 0c6,-5 8,-5 9,-6l0 0c0,-1 -1,0 -1,-1 1,-3 1,-9 1,-17l0 -196c0,-5 0,-10 -1,-13l-2 -2 0 0c-3,-3 -6,-5 -8,-6 0,0 0,0 0,0l0 0c0,0 -1,0 -3,0 -4,0 -11,0 -20,0l-334 0zm357 0c0,0 1,0 0,0l0 0 0 0zm137 360l63 51 1 1c6,5 11,11 16,17 5,6 9,13 12,21 3,6 4,14 5,24l0 0c1,8 2,17 2,27l0 270c0,21 -5,41 -14,59 -8,18 -21,34 -37,47l-2 2c-3,2 -8,6 -13,10 -5,5 -12,11 -20,18l-1 0c-16,13 -31,23 -47,29 -17,7 -34,11 -51,11l-575 0 -40 0 0 -40 0 -1053 0 -40 597 0c33,0 66,13 98,39l36 30c16,14 29,30 37,48 9,18 14,38 14,58l0 258c0,16 -4,31 -10,45l0 0c-7,14 -17,26 -29,37l-1 1 -41 30zm924 441l0 106 0 40 -41 0 -628 0 -41 0 0 -40 0 -1053 0 -40 41 0 126 0 40 0 0 40 0 907 462 0 41 0 0 40zm160 -987l88 0 40 0 0 1093 0 40 -40 0 -126 0 -41 0 0 -40 0 -1012 79 -81zm466 947l693 0 40 0 0 40 0 106 0 40 -40 0 -914 0 -40 0 0 -40 0 -112 7 -22 516 -773 -480 0 -40 0 0 -41 0 -105 0 -40 40 0 704 0 40 0 0 154 -7 23 -519 770zm845 0l489 0 40 0 -67 186 -683 0 -40 0 0 -40 0 -112 7 -22 516 -773 -805 0 -40 0 0 -41 0 -105 0 -40 40 0 1029 0 40 0 0 40 0 114 -7 23 -519 770zm538 133l361 -1053 9 -27 29 0 177 0 29 0 9 27 369 1053 18 53 -56 0 -127 0 -28 0 -9 -27 -69 -191 -444 0 -66 191 -9 27 -29 0 -126 0 -56 0 18 -53zm488 -821l-161 478 325 0 -164 -478zm629 -259l556 0c34,0 67,13 98,39l36 30c17,14 29,30 38,48 9,18 13,38 13,58l0 352c0,22 -5,42 -14,60 -8,19 -21,35 -38,49l-38 32 0 0c-29,24 -61,36 -95,36l-10 0 115 179 0 0c4,7 9,14 13,19 2,4 4,6 5,7l0 0c0,0 2,1 4,3 4,2 10,6 18,10l0 0 16 9 0 0c11,6 20,12 26,17 11,8 18,16 22,25 4,7 6,17 8,29 1,9 1,20 1,32l0 59 0 40 -40 0 -38 0c-10,0 -18,0 -26,-1 -9,-1 -16,-2 -22,-4l0 0c-7,-2 -14,-5 -22,-10l0 0c-7,-4 -15,-9 -23,-15l0 0 -29 -19c-13,-9 -26,-20 -37,-32 -10,-12 -20,-25 -28,-39l0 0 -188 -301 -154 0 0 381 0 40 -41 0 -126 0 -40 0 0 -40 0 -1053 0 -40 40 0zm167 186l0 340 334 0c9,0 15,0 19,0 2,0 3,0 4,0l0 0c-1,0 -1,0 0,0 1,-1 4,-3 8,-6l2 -2c0,-3 0,-8 0,-13l0 -298c0,-5 0,-10 0,-13l-2 -2 0 0c-4,-3 -7,-5 -8,-6 -1,0 -1,0 0,0l0 0c-1,0 -2,0 -4,0 -4,0 -10,0 -19,0l-334 0zm357 340l0 0c0,0 0,0 0,0l0 0zm0 -340c0,0 0,0 0,0l0 0 0 0zm317 907l0 -1053 0 -40 40 0 557 0c36,0 69,13 99,40l0 0 143 120c34,28 51,58 51,91l0 631c0,18 -5,34 -15,51 -9,14 -21,27 -36,40l-143 119 0 0c-14,14 -30,24 -46,30 -17,7 -35,11 -53,11l-557 0 -40 0 0 -40zm683 -256l0 -541c0,-8 -7,-18 -22,-30l-72 -60 -1 -1c-8,-7 -16,-12 -23,-15 -7,-3 -15,-4 -22,-4l-336 0 0 761 336 0c15,0 30,-6 45,-19l1 -1 72 -61c15,-11 22,-21 22,-29z"/>
  </g>
 </g>
</svg>
