<?xml version="1.0" encoding="UTF-8"?>
<!DOCTYPE svg PUBLIC "-//W3C//DTD SVG 1.1//EN" "http://www.w3.org/Graphics/SVG/1.1/DTD/svg11.dtd">
<!-- Creator: CorelDRAW X7 -->
<svg xmlns="http://www.w3.org/2000/svg" xml:space="preserve" width="1.65943in" height="0.444622in" version="1.1" style="shape-rendering:geometricPrecision; text-rendering:geometricPrecision; image-rendering:optimizeQuality; fill-rule:evenodd; clip-rule:evenodd"
viewBox="0 0 80 21"
 xmlns:xlink="http://www.w3.org/1999/xlink">
 <defs>
  <style type="text/css">
   <![CDATA[
    .fil0 {fill:white}
    .fil1 {fill:white;fill-rule:nonzero}
   ]]>
  </style>
 </defs>
 <g id="Layer_x0020_1">
  <metadata id="CorelCorpID_0Corel-Layer"/>
  <g id="_438608016">
   <path class="fil0" d="M6 2c1,0 1,0 2,0 1,0 1,0 2,0l0 0 0 0c0,0 0,1 0,1 -1,2 -1,5 0,7l0 0c0,0 1,-3 3,-3 0,-1 -1,-2 -1,-2 0,0 0,0 0,0 1,0 1,0 1,0 0,0 1,0 2,1 0,0 0,0 1,0 0,0 0,0 0,0 0,-1 -1,-2 -1,-2 -1,-1 -2,-1 -2,-2 -3,6 -2,2 -2,-1l0 -1c-1,0 -2,0 -3,1 -1,0 -1,1 -2,1zm9 1c1,1 1,1 2,1 0,1 0,1 1,2l0 0 0 0c-1,0 -1,0 -2,1 -2,0 -5,1 -6,3l0 0c1,0 4,0 5,1 0,0 1,-1 1,-1 0,0 0,0 0,0 0,0 1,0 1,0 0,1 0,1 -1,3 0,0 1,0 1,0 0,0 0,0 1,1 0,-1 0,-2 0,-3 0,-1 1,-1 1,-2 -1,0 -2,0 -2,0 -5,0 1,-1 2,-2l1 0c-1,-2 -1,-2 -2,-3 -1,-1 -2,-1 -3,-1zm4 9c0,0 0,1 0,1 -1,1 -1,2 -1,2l0 0 0 0c0,0 -1,-1 -1,-1 -2,-1 -4,-3 -7,-3l0 0c1,0 2,3 2,5 1,-1 1,-1 2,-1 0,1 0,1 0,1 0,0 0,0 0,0 -1,0 -1,1 -3,1 0,0 0,1 0,1 0,0 0,0 0,1 1,-1 2,-1 3,-1 0,0 1,0 2,-1 0,0 -1,-1 -1,-1 -2,-4 1,0 3,1l0 0c1,-1 2,-2 2,-3 0,-1 -1,-2 -1,-2zm-6 7c0,0 0,0 -1,0 -1,1 -1,1 -2,1l0 0 0 0c0,-1 0,-1 0,-2 1,-2 1,-5 0,-7l0 0c0,1 -1,3 -3,4 0,0 1,1 1,1 0,0 0,1 0,1 -1,0 -1,0 -1,0 0,0 -1,-1 -2,-2 0,0 0,0 -1,0 0,1 0,1 0,1 0,0 1,1 1,2 1,0 2,1 2,1 1,0 1,-1 1,-1 2,-4 1,1 1,2 0,1 0,1 -1,1 2,0 3,0 4,0 1,-1 1,-1 1,-2zm-9 -1c0,0 0,-1 -1,-1 0,-1 -1,-1 -1,-2l0 0 0 0c1,0 1,0 2,0 2,-1 5,-2 6,-4 -1,0 -4,0 -5,-1 0,1 -1,1 -1,1 0,1 0,1 0,1 0,-1 -1,-1 -1,-1 0,0 0,-1 1,-2 0,0 -1,-1 -1,-1 0,0 0,0 -1,0 0,1 0,1 0,2 0,1 -1,2 -1,3 1,0 2,0 2,0 5,0 -1,1 -2,1l-1 1c1,1 1,2 2,2 1,1 2,1 2,1zm-3 -8c0,-1 0,-1 0,-2 1,-1 1,-1 1,-2l0 0 0 0c0,1 1,1 1,1 2,2 4,4 7,4l0 0c-1,-1 -2,-3 -2,-5 -1,0 -1,0 -2,0 0,0 0,0 0,0 0,-1 0,-1 0,-1 1,0 1,0 2,-1 1,0 1,0 1,-1 0,0 0,0 0,0 -1,0 -2,0 -3,0 0,1 -1,1 -2,1 0,1 1,1 1,2 2,3 -1,0 -3,-1l-1 -1c0,1 -1,2 -1,3 0,1 1,2 1,3z"/>
   <path class="fil1" d="M29 12l0 0 0 0c0,-1 0,-1 -1,-1 0,0 0,0 0,0l0 0c0,0 0,0 0,0 0,0 0,0 0,0l-2 0 0 3 3 0c0,0 0,0 0,0 0,0 0,0 0,0l0 0c0,0 0,0 0,0 0,0 0,0 0,0l0 0c0,0 0,0 0,0l0 -2c0,0 0,0 0,0 0,0 0,0 0,0l0 0zm-1 -1c0,0 1,0 0,0 0,0 0,0 0,0l0 0zm1 3l0 0 0 0c0,0 0,0 0,0l0 0zm0 -2c0,0 0,0 0,0l0 0 0 0zm-3 -5l0 3 2 0c0,0 0,0 0,0 0,0 0,0 0,0l0 0c0,0 0,0 0,0l0 0 1 -1 0 0c0,0 0,0 0,0l0 0c0,0 0,0 0,0 0,0 0,0 0,0l0 -1c0,0 0,-1 0,-1l0 0 0 0c0,0 0,0 0,0 0,0 0,0 0,0l0 0c0,0 0,0 0,0 0,0 0,0 0,0l-3 0zm3 0c0,0 0,0 0,0l0 0 0 0zm1 4l0 0 0 0c1,0 1,0 1,0 0,0 0,0 0,0 0,0 0,0 0,0l0 0c0,1 0,1 0,1l0 2c0,0 0,0 0,1 0,0 -1,0 -1,0l0 0c0,0 0,0 0,0 0,0 0,0 0,0l0 0c0,0 0,0 0,0 -1,1 -1,1 -1,1l-5 0 0 0 0 -1 0 -9 0 0 5 0c0,0 1,0 1,0l0 0c0,1 0,1 0,1 1,0 1,0 1,0l0 3c0,0 0,0 0,0l0 0c-1,0 -1,0 -1,0l0 0 0 1zm8 3l0 1 0 1 0 0 -6 0 0 0 0 -1 0 -9 0 0 0 0 1 0 1 0 0 0 0 8 4 0 0 0 0 0zm1 -8l1 0 0 0 0 9 0 1 0 0 -1 0 0 0 0 -1 0 -9 0 0zm4 8l6 0 1 0 0 0 0 1 0 1 -1 0 -8 0 0 0 0 -1 0 -1 0 0 5 -7 -5 0 0 0 0 0 0 -1 0 0 0 0 6 0 1 0 0 1 0 0 -5 7zm8 0l4 0 0 0 0 2 -6 0 -1 0 0 -1 0 -1 0 0 5 -7 -7 0 0 0 0 0 0 -1 0 0 0 0 9 0 0 0 0 0 0 1 0 0 -4 7zm4 1l3 -9 0 0 1 0 1 0 0 0 0 0 4 9 0 1 -1 0 -1 0 0 0 0 -1 -1 -1 -4 0 0 1 0 1 0 0 -1 0 -1 0 0 -1zm4 -7l-1 4 3 0 -2 -4zm6 -2l5 0c0,0 0,0 0,0l1 0c0,1 0,1 0,1 0,0 0,0 0,0l0 3c0,1 0,1 0,1 0,0 0,0 0,0l-1 1 0 0c0,0 0,0 0,0l0 0 0 1 0 0c1,0 1,1 1,1 0,0 0,0 0,0l0 0c0,0 0,0 0,0 0,0 0,0 0,0l0 0 0 0 0 0c0,0 0,0 0,0 0,0 0,0 0,0 0,0 0,0 0,0 0,1 0,1 0,1l0 0 0 1 0 0 0 0c0,0 0,0 0,0 0,0 -1,0 -1,0l0 0c0,0 0,-1 0,-1l0 0c0,0 0,0 0,0l0 0 0 0c0,0 0,0 -1,0 0,0 0,0 0,0l0 0 -1 -3 -2 0 0 3 0 1 0 0 -1 0 -1 0 0 -1 0 -9 0 0 1 0zm1 1l0 3 3 0c0,0 0,0 0,0 0,0 0,0 0,0l0 0c0,0 0,0 0,0 0,0 0,0 0,0l0 0c0,0 0,0 0,0l0 -2c0,0 0,-1 0,-1l0 0 0 0c0,0 0,0 0,0 0,0 0,0 0,0l0 0c0,0 0,0 0,0 0,0 0,0 0,0l-3 0zm3 3l0 0c0,0 0,0 0,0l0 0zm0 -3c0,0 0,0 0,0l0 0 0 0zm3 8l0 -9 0 0 0 0 5 0c1,0 1,0 1,0l0 0 1 1c1,0 1,1 1,1l0 5c0,1 0,1 0,1 0,0 -1,0 -1,0l-1 1 0 0c0,0 0,0 0,0 0,1 -1,1 -1,1l-5 0 0 0 0 -1zm6 -2l0 -5c0,0 0,0 0,0l-1 0 0 0c0,0 0,-1 0,-1 0,0 0,0 0,0l-3 0 0 7 3 0c0,0 0,0 0,0l0 0 1 -1c0,0 0,0 0,0z"/>
  </g>
 </g>
</svg>
