<?xml version="1.0" encoding="UTF-8"?>
<!DOCTYPE svg PUBLIC "-//W3C//DTD SVG 1.1//EN" "http://www.w3.org/Graphics/SVG/1.1/DTD/svg11.dtd">
<!-- Creator: CorelDRAW X7 -->
<svg xmlns="http://www.w3.org/2000/svg" xml:space="preserve" width="2.32954in" height="2.28061in" version="1.1" style="shape-rendering:geometricPrecision; text-rendering:geometricPrecision; image-rendering:optimizeQuality; fill-rule:evenodd; clip-rule:evenodd"
viewBox="0 0 1630 1596"
 xmlns:xlink="http://www.w3.org/1999/xlink">
 <defs>
  <style type="text/css">
   <![CDATA[
    .fil0 {fill:rgb(191, 191, 191)}
   ]]>
  </style>
 </defs>
 <g id="Layer_x0020_1">
  <metadata id="CorelCorpID_0Corel-Layer"/>
  <path class="fil0" d="M1324 0l-1052 0c-72,0 -141,29 -192,80 -49,49 -80,117 -80,192l0 1052c0,72 29,141 80,192 49,50 117,80 192,80l1052 0c72,0 141,-29 192,-80 50,-49 80,-117 80,-192l0 -110 -96 0 0 110c0,47 -18,92 -51,125 -32,32 -76,51 -125,51l-1052 0c-47,0 -91,-18 -125,-51 -32,-32 -51,-76 -51,-125l0 -1052c0,-47 18,-91 52,-125 31,-32 75,-51 124,-51l1052 0c47,0 92,18 125,52 32,31 51,75 51,124l0 48 96 0 0 -48c0,-72 -29,-141 -80,-192 -49,-49 -117,-80 -192,-80z"/>
  <path class="fil0" d="M692 627c-26,-19 -58,-32 -92,-38l0 -94c0,-18 -14,-33 -32,-33 -18,0 -33,15 -33,33l0 94c-34,6 -65,19 -92,38l-66 -66c-13,-13 -34,-13 -47,0 -12,12 -12,33 0,46l67 67c-19,26 -33,57 -38,91l-94 0c-18,0 -33,15 -33,33 0,18 15,33 33,33l94 0c5,34 19,65 38,92l-67 66c-12,13 -12,34 0,46 13,13 34,13 47,0l66 -66c27,19 58,33 92,38l0 94c0,18 15,33 33,33 18,0 32,-15 32,-33l0 -94c34,-6 66,-19 92,-38l67 66c13,13 33,13 46,0 13,-12 13,-33 0,-46l-67 -66c20,-27 33,-58 39,-92l94 0c18,0 32,-15 32,-33 0,-18 -14,-33 -32,-33l-94 0c-6,-34 -19,-65 -39,-91l67 -67c13,-13 13,-34 0,-46 -13,-13 -33,-13 -46,0l-67 66zm-21 138c-2,-6 -5,-11 -7,-17l44 -44c13,18 22,39 26,61l-63 0zm-9 -108l-45 45c34,18 -6,-3 -17,-7l0 -63c23,4 44,13 62,25zm9 174l0 0zm-7 17c2,-6 5,-11 7,-17l63 0c-4,22 -13,43 -26,61l-44 -44zm-47 46l45 45c-18,12 -39,21 -62,25l0 -63c6,-2 12,-4 17,-7zm-82 7l0 63c-22,-4 -43,-13 -62,-25l45 -45c6,3 11,5 17,7zm-63 -53l-45 44c-12,-18 -21,-39 -26,-61l64 0c2,6 4,11 7,17zm-7 -83l-64 0c5,-22 14,-43 26,-61l45 44c-3,6 -5,11 -7,17zm53 -63l-45 -45c19,-12 39,-21 62,-25l0 63c-6,2 -12,4 -17,7z"/>
  <path class="fil0" d="M1464 387l0 196c0,13 11,25 25,25l116 0c14,0 25,-12 25,-25l0 -196c0,-14 -11,-25 -25,-25l-116 0c-14,0 -25,11 -25,25z"/>
  <polygon class="fil0" points="1596,650 1500,650 1500,884 1596,884 "/>
  <path class="fil0" d="M1605 926l-116 0c-14,0 -25,12 -25,25l0 196c0,14 11,25 25,25l116 0c14,0 25,-11 25,-25l0 -196c0,-13 -11,-25 -25,-25z"/>
 </g>
</svg>
