<svg xmlns="http://www.w3.org/2000/svg"
    xmlns:xlink="http://www.w3.org/1999/xlink" width="400px" height="400px" viewBox="0 0 400 400" version="1.1">
    <title>mathwallet</title>
    <defs>
        <filter id="filter-1">
            <feColorMatrix in="SourceGraphic" type="matrix" values="0 0 0 0 1.000000 0 0 0 0 1.000000 0 0 0 0 1.000000 0 0 0 1.000000 0"/>
        </filter>
    </defs>
    <g id="PancakeBunny" stroke="none" stroke-width="1" fill="none" fill-rule="evenodd">
        <g id="Artboard" transform="translate(-739.000000, -177.000000)">
            <g id="mathwallet" transform="translate(739.000000, 177.000000)">
                <circle id="Oval" fill="#000000" cx="200" cy="200" r="200"/>
                <g filter="url(#filter-1)">
                    <g transform="translate(40.000000, 40.000000)">
                        <rect id="Rectangle" fill="#FFFFFF" fill-rule="nonzero" opacity="0" x="0" y="0" width="320" height="320"/>
                        <path d="M227.117522,144.402506 C221.424931,138.709915 221.424931,129.480402 227.117522,123.787811 C232.810112,118.095221 242.039625,118.095221 247.732216,123.787811 C253.424808,129.480402 253.424808,138.709915 247.732216,144.402506 C242.039625,150.095096 232.810112,150.095096 227.117522,144.402506 Z M178.157622,193.362405 C173.888179,189.092962 173.888179,182.170827 178.157622,177.901384 C182.427065,173.631941 189.3492,173.631941 193.618643,177.901384 C197.888086,182.170827 197.888086,189.092962 193.618643,193.362405 C189.3492,197.631848 182.427065,197.631848 178.157622,193.362405 Z M255.462728,167.594037 C251.193283,163.324594 251.193283,156.402459 255.462728,152.133016 C259.73217,147.863573 266.654305,147.863573 270.923748,152.133016 C275.19319,156.402459 275.19319,163.324594 270.923748,167.594037 C266.654305,171.86348 259.73217,171.86348 255.462728,167.594037 Z M229.694358,193.362405 C225.424915,189.092962 225.424915,182.170827 229.694358,177.901384 C233.963801,173.631941 240.885936,173.631941 245.155379,177.901384 C249.424822,182.170827 249.424822,189.092962 245.155379,193.362405 C240.885936,197.631848 233.963801,197.631848 229.694358,193.362405 Z M283.80793,190.785568 C280.961635,187.939273 280.961635,183.324516 283.80793,180.478221 C286.654228,177.631926 291.268983,177.631926 294.115278,180.478221 C296.961575,183.324516 296.961575,187.939273 294.115278,190.785568 C291.268983,193.631864 286.654228,193.631864 283.80793,190.785568 Z M258.039562,216.553936 C255.193268,213.707641 255.193268,209.092885 258.039562,206.246589 C260.885858,203.400294 265.500615,203.400294 268.34691,206.246589 C271.193205,209.092885 271.193205,213.707641 268.34691,216.553936 C265.500615,219.400232 260.885858,219.400232 258.039562,216.553936 Z M201.349153,170.170874 C195.656563,164.478283 195.656563,155.24877 201.349153,149.556179 C207.041744,143.863589 216.271257,143.863589 221.963848,149.556179 C227.656439,155.24877 227.656439,164.478283 221.963848,170.170874 C216.271257,175.863465 207.041744,175.863465 201.349153,170.170874 Z M201.349153,118.634138 C195.656563,112.941547 195.656563,103.712034 201.349153,98.019443 C207.041744,92.3268523 216.271257,92.3268523 221.963848,98.019443 C227.656439,103.712034 227.656439,112.941547 221.963848,118.634138 C216.271257,124.326728 207.041744,124.326728 201.349153,118.634138 Z M175.580785,144.402506 C169.888195,138.709915 169.888195,129.480402 175.580785,123.787811 C181.273376,118.095221 190.502889,118.095221 196.19548,123.787811 C201.88807,129.480402 201.88807,138.709915 196.19548,144.402506 C190.502889,150.095096 181.273376,150.095096 175.580785,144.402506 Z M123.80452,144.402506 C118.11193,138.709915 118.11193,129.480402 123.80452,123.787811 C129.497111,118.095221 138.726624,118.095221 144.419215,123.787811 C150.111806,129.480402 150.111806,138.709915 144.419215,144.402506 C138.726624,150.095096 129.497111,150.095096 123.80452,144.402506 Z M74.844621,193.362405 C70.575178,189.092962 70.575178,182.170827 74.844621,177.901384 C79.114064,173.631941 86.0361988,173.631941 90.3056418,177.901384 C94.5750848,182.170827 94.5750848,189.092962 90.3056418,193.362405 C86.0361988,197.631848 79.114064,197.631848 74.844621,193.362405 Z M152.149725,167.594037 C147.880282,163.324594 147.880282,156.402459 152.149725,152.133016 C156.419168,147.863573 163.341303,147.863573 167.610746,152.133016 C171.880189,156.402459 171.880189,163.324594 167.610746,167.594037 C163.341303,171.86348 156.419168,171.86348 152.149725,167.594037 Z M126.381357,193.362405 C122.111914,189.092962 122.111914,182.170827 126.381357,177.901384 C130.6508,173.631941 137.572935,173.631941 141.842378,177.901384 C146.111821,182.170827 146.111821,189.092962 141.842378,193.362405 C137.572935,197.631848 130.6508,197.631848 126.381357,193.362405 Z M25.8847215,190.785568 C23.0384262,187.939273 23.0384262,183.324516 25.8847215,180.478221 C28.7310168,177.631926 33.3457735,177.631926 36.1920688,180.478221 C39.038364,183.324516 39.038364,187.939273 36.1920688,190.785568 C33.3457735,193.631864 28.7310168,193.631864 25.8847215,190.785568 Z M51.6530898,216.553936 C48.8067943,213.707641 48.8067943,209.092885 51.6530898,206.246589 C54.499385,203.400294 59.1141415,203.400294 61.9604368,206.246589 C64.8067323,209.092885 64.8067323,213.707641 61.9604368,216.553936 C59.1141415,219.400232 54.499385,219.400232 51.6530898,216.553936 Z M154.726562,216.553936 C151.880267,213.707641 151.880267,209.092885 154.726562,206.246589 C157.572858,203.400294 162.187614,203.400294 165.033909,206.246589 C167.880205,209.092885 167.880205,213.707641 165.033909,216.553936 C162.187614,219.400232 157.572858,219.400232 154.726562,216.553936 Z M49.0762528,167.594037 C44.8068098,163.324594 44.8068098,156.402459 49.0762528,152.133016 C53.3456958,147.863573 60.2678308,147.863573 64.5372738,152.133016 C68.8067168,156.402459 68.8067168,163.324594 64.5372738,167.594037 C60.2678308,171.86348 53.3456958,171.86348 49.0762528,167.594037 Z M98.0361523,170.170874 C92.3435615,164.478283 92.3435615,155.24877 98.0361523,149.556179 C103.728743,143.863589 112.958256,143.863589 118.650847,149.556179 C124.343438,155.24877 124.343438,164.478283 118.650847,170.170874 C112.958256,175.863465 103.728743,175.863465 98.0361523,170.170874 Z M98.0361523,118.634138 C92.3435615,112.941547 92.3435615,103.712034 98.0361523,98.019443 C103.728743,92.3268523 112.958256,92.3268523 118.650847,98.019443 C124.343438,103.712034 124.343438,112.941547 118.650847,118.634138 C112.958256,124.326728 103.728743,124.326728 98.0361523,118.634138 Z M72.267784,144.402506 C66.5751935,138.709915 66.5751935,129.480402 72.267784,123.787811 C77.9603748,118.095221 87.189888,118.095221 92.8824785,123.787811 C98.5750693,129.480402 98.5750693,138.709915 92.8824785,144.402506 C87.189888,150.095096 77.9603748,150.095096 72.267784,144.402506 Z" id="Combined-Shape" fill="#000000" fill-rule="nonzero"/>
                    </g>
                </g>
            </g>
        </g>
    </g>
</svg>